# xmcd CD database file
#
# Track frame offsets:
#	150
#	42777
#	82790
#	144445
#	186599
#
# Disc length: 3087 seconds
#
# Revision: 0
# Processed by: cddbd v1.5.2PL0 Copyright (c) Steve Scherf et al.
# Submitted via: CDex 1.70beta2
#
DISCID=390c0d05
DTITLE=Thommy Kotter Unit - Joy CD1
DYEAR=2004
DGENRE=Jazz
TTITLE0=Blues Seven
TTITLE1=Joy
TTITLE2=Aemaets
TTITLE3=Jaki Stomp
TTITLE4=A Battuta
EXTD=YEAR: 2004
EXTT0=
EXTT1=
EXTT2=
EXTT3=
EXTT4=
PLAYORDER=
